{
  "accessors": [
    {
      "bufferView": 2,
      "componentType": 5126,
      "count": 308,
      "max": [
        110.0,
        65.0,
        2.370000123977661
      ],
      "min": [
        -110.0,
        -65.0,
        0.0
      ],
      "type": "VEC3"
    },
    {
      "bufferView": 2,
      "byteOffset": 3696,
      "componentType": 5126,
      "count": 308,
      "max": [
        0.9983512759208679,
        0.9983512759208679,
        1.0
      ],
      "min": [
        -0.9983512759208679,
        -0.9983512759208679,
        -1.0
      ],
      "type": "VEC3"
    },
    {
      "bufferView": 1,
      "componentType": 5126,
      "count": 308,
      "max": [
        1.0,
        -2.9802322387695313e-08
      ],
      "min": [
        0.0,
        -1.0
      ],
      "type": "VEC2"
    },
    {
      "bufferView": 0,
      "componentType": 5125,
      "count": 768,
      "type": "SCALAR"
    },
    {
      "bufferView": 2,
      "byteOffset": 7392,
      "componentType": 5126,
      "count": 169,
      "max": [
        117.02665710449219,
        117.02665710449219,
        12.51629638671875
      ],
      "min": [
        -117.02664947509766,
        -117.02664947509766,
        0.0
      ],
      "type": "VEC3"
    },
    {
      "bufferView": 2,
      "byteOffset": 9420,
      "componentType": 5126,
      "count": 169,
      "max": [
        1.0,
        1.0,
        1.0
      ],
      "min": [
        -1.0,
        -1.0,
        -6.097868094911973e-07
      ],
      "type": "VEC3"
    },
    {
      "bufferView": 1,
      "byteOffset": 2464,
      "componentType": 5126,
      "count": 169,
      "max": [
        1.0,
        -0.0
      ],
      "min": [
        0.0,
        -1.0
      ],
      "type": "VEC2"
    },
    {
      "bufferView": 0,
      "byteOffset": 3072,
      "componentType": 5125,
      "count": 600,
      "type": "SCALAR"
    },
    {
      "bufferView": 2,
      "byteOffset": 11448,
      "componentType": 5126,
      "count": 337,
      "max": [
        117.02666473388672,
        117.02665710449219,
        12.51629638671875
      ],
      "min": [
        -117.02665710449219,
        -117.02665710449219,
        0.0
      ],
      "type": "VEC3"
    },
    {
      "bufferView": 2,
      "byteOffset": 15492,
      "componentType": 5126,
      "count": 337,
      "max": [
        1.0,
        1.0,
        1.0
      ],
      "min": [
        -1.0,
        -1.0,
        -1.154508936451748e-06
      ],
      "type": "VEC3"
    },
    {
      "bufferView": 1,
      "byteOffset": 3816,
      "componentType": 5126,
      "count": 337,
      "max": [
        1.0,
        -0.0
      ],
      "min": [
        0.0,
        -1.0
      ],
      "type": "VEC2"
    },
    {
      "bufferView": 0,
      "byteOffset": 5472,
      "componentType": 5125,
      "count": 1560,
      "type": "SCALAR"
    },
    {
      "bufferView": 2,
      "byteOffset": 19536,
      "componentType": 5126,
      "count": 637,
      "max": [
        39.96031951904297,
        53.34209442138672,
        141.82492065429688
      ],
      "min": [
        -44.21163558959961,
        -26.906932830810547,
        1.8246183395385742
      ],
      "type": "VEC3"
    },
    {
      "bufferView": 2,
      "byteOffset": 27180,
      "componentType": 5126,
      "count": 637,
      "max": [
        0.9999933242797852,
        0.9999998807907104,
        1.0
      ],
      "min": [
        -0.9977890253067017,
        -0.994987964630127,
        -1.0
      ],
      "type": "VEC3"
    },
    {
      "bufferView": 1,
      "byteOffset": 6512,
      "componentType": 5126,
      "count": 637,
      "max": [
        0.0,
        0.0
      ],
      "min": [
        0.0,
        0.0
      ],
      "type": "VEC2"
    },
    {
      "bufferView": 0,
      "byteOffset": 11712,
      "componentType": 5125,
      "count": 3744,
      "type": "SCALAR"
    },
    {
      "bufferView": 2,
      "byteOffset": 34824,
      "componentType": 5126,
      "count": 294,
      "max": [
        66.12013244628906,
        28.7003231048584,
        7.4792375564575195
      ],
      "min": [
        -21.95925521850586,
        -21.959251403808594,
        -11.240053176879883
      ],
      "type": "VEC3"
    },
    {
      "bufferView": 2,
      "byteOffset": 38352,
      "componentType": 5126,
      "count": 294,
      "max": [
        0.9997615814208984,
        0.9997615814208984,
        1.0
      ],
      "min": [
        -0.9997615814208984,
        -0.9997616410255432,
        0.02182246930897236
      ],
      "type": "VEC3"
    },
    {
      "bufferView": 1,
      "byteOffset": 11608,
      "componentType": 5126,
      "count": 294,
      "max": [
        1.0,
        -0.0
      ],
      "min": [
        0.0,
        -1.0
      ],
      "type": "VEC2"
    },
    {
      "bufferView": 0,
      "byteOffset": 26688,
      "componentType": 5125,
      "count": 1296,
      "type": "SCALAR"
    },
    {
      "bufferView": 2,
      "byteOffset": 41880,
      "componentType": 5126,
      "count": 294,
      "max": [
        148.710205078125,
        53.24338912963867,
        33.85100555419922
      ],
      "min": [
        65.00833129882813,
        -5.177201271057129,
        -11.240053176879883
      ],
      "type": "VEC3"
    },
    {
      "bufferView": 2,
      "byteOffset": 45408,
      "componentType": 5126,
      "count": 294,
      "max": [
        0.9999647736549377,
        0.9999647736549377,
        1.0
      ],
      "min": [
        -0.9999647736549377,
        -0.999964714050293,
        0.008395429700613022
      ],
      "type": "VEC3"
    },
    {
      "bufferView": 1,
      "byteOffset": 13960,
      "componentType": 5126,
      "count": 294,
      "max": [
        1.0,
        -0.0
      ],
      "min": [
        0.0,
        -1.0
      ],
      "type": "VEC2"
    },
    {
      "bufferView": 0,
      "byteOffset": 31872,
      "componentType": 5125,
      "count": 1296,
      "type": "SCALAR"
    },
    {
      "bufferView": 2,
      "byteOffset": 48936,
      "componentType": 5126,
      "count": 250,
      "max": [
        11.410993576049805,
        11.42536449432373,
        12.214119911193848
      ],
      "min": [
        -11.410993576049805,
        -11.425363540649414,
        -12.214119911193848
      ],
      "type": "VEC3"
    },
    {
      "bufferView": 2,
      "byteOffset": 51936,
      "componentType": 5126,
      "count": 250,
      "max": [
        1.0,
        1.0,
        1.0
      ],
      "min": [
        -1.0,
        -1.0,
        -1.0
      ],
      "type": "VEC3"
    },
    {
      "bufferView": 1,
      "byteOffset": 16312,
      "componentType": 5126,
      "count": 250,
      "max": [
        0.9045087099075317,
        -0.09549149870872498
      ],
      "min": [
        0.09549146890640259,
        -0.9045084714889526
      ],
      "type": "VEC2"
    },
    {
      "bufferView": 0,
      "byteOffset": 37056,
      "componentType": 5125,
      "count": 1080,
      "type": "SCALAR"
    },
    {
      "bufferView": 2,
      "byteOffset": 54936,
      "componentType": 5126,
      "count": 250,
      "max": [
        11.410993576049805,
        11.42536449432373,
        12.214119911193848
      ],
      "min": [
        -11.410993576049805,
        -11.425363540649414,
        -12.214119911193848
      ],
      "type": "VEC3"
    },
    {
      "bufferView": 2,
      "byteOffset": 57936,
      "componentType": 5126,
      "count": 250,
      "max": [
        1.0,
        1.0,
        1.0
      ],
      "min": [
        -1.0,
        -1.0,
        -1.0
      ],
      "type": "VEC3"
    },
    {
      "bufferView": 1,
      "byteOffset": 18312,
      "componentType": 5126,
      "count": 250,
      "max": [
        0.9045087099075317,
        -0.09549149870872498
      ],
      "min": [
        0.09549146890640259,
        -0.9045084714889526
      ],
      "type": "VEC2"
    },
    {
      "bufferView": 0,
      "byteOffset": 41376,
      "componentType": 5125,
      "count": 1080,
      "type": "SCALAR"
    },
    {
      "bufferView": 2,
      "byteOffset": 60936,
      "componentType": 5126,
      "count": 250,
      "max": [
        11.410993576049805,
        11.42536449432373,
        12.214119911193848
      ],
      "min": [
        -11.410993576049805,
        -11.425363540649414,
        -12.214119911193848
      ],
      "type": "VEC3"
    },
    {
      "bufferView": 2,
      "byteOffset": 63936,
      "componentType": 5126,
      "count": 250,
      "max": [
        1.0,
        1.0,
        1.0
      ],
      "min": [
        -1.0,
        -1.0,
        -1.0
      ],
      "type": "VEC3"
    },
    {
      "bufferView": 1,
      "byteOffset": 20312,
      "componentType": 5126,
      "count": 250,
      "max": [
        0.9045087099075317,
        -0.09549149870872498
      ],
      "min": [
        0.09549146890640259,
        -0.9045084714889526
      ],
      "type": "VEC2"
    },
    {
      "bufferView": 0,
      "byteOffset": 45696,
      "componentType": 5125,
      "count": 1080,
      "type": "SCALAR"
    },
    {
      "bufferView": 2,
      "byteOffset": 66936,
      "componentType": 5126,
      "count": 144,
      "max": [
        -69.90843200683594,
        35.255001068115234,
        9.0
      ],
      "min": [
        -102.138427734375,
        0.0,
        6.0
      ],
      "type": "VEC3"
    },
    {
      "bufferView": 2,
      "byteOffset": 68664,
      "componentType": 5126,
      "count": 144,
      "max": [
        0.8659772276878357,
        1.0,
        1.0
      ],
      "min": [
        -0.8407805562019348,
        -1.0,
        0.0
      ],
      "type": "VEC3"
    },
    {
      "bufferView": 1,
      "byteOffset": 22312,
      "componentType": 5126,
      "count": 144,
      "max": [
        0.8893213272094727,
        -1.1920928955078125e-07
      ],
      "min": [
        0.11067870259284973,
        -1.0
      ],
      "type": "VEC2"
    },
    {
      "bufferView": 0,
      "byteOffset": 50016,
      "componentType": 5125,
      "count": 414,
      "type": "SCALAR"
    },
    {
      "bufferView": 2,
      "byteOffset": 70392,
      "componentType": 5126,
      "count": 1784,
      "max": [
        131.1750030517578,
        35.86000061035156,
        9.0
      ],
      "min": [
        -131.17498779296875,
        -0.6050000190734863,
        6.0
      ],
      "type": "VEC3"
    },
    {
      "bufferView": 2,
      "byteOffset": 91800,
      "componentType": 5126,
      "count": 1784,
      "max": [
        1.0,
        1.0,
        1.0
      ],
      "min": [
        -1.0,
        -1.0,
        0.0
      ],
      "type": "VEC3"
    },
    {
      "bufferView": 1,
      "byteOffset": 23464,
      "componentType": 5126,
      "count": 1784,
      "max": [
        1.0,
        -0.0
      ],
      "min": [
        0.0,
        -1.0
      ],
      "type": "VEC2"
    },
    {
      "bufferView": 0,
      "byteOffset": 51672,
      "componentType": 5125,
      "count": 6105,
      "type": "SCALAR"
    }
  ],
  "asset": {
    "extras": {
      "author": "aki74 (https://sketchfab.com/aki74)",
      "license": "CC-BY-4.0 (http://creativecommons.org/licenses/by/4.0/)",
      "source": "https://sketchfab.com/3d-models/business-card-background-265e60d4116a4153b5bba99c51794000",
      "title": "business card background"
    },
    "generator": "Sketchfab-15.49.0",
    "version": "2.0"
  },
  "bufferViews": [
    {
      "buffer": 0,
      "byteLength": 76092,
      "name": "floatBufferViews",
      "target": 34963
    },
    {
      "buffer": 0,
      "byteLength": 37736,
      "byteOffset": 76092,
      "byteStride": 8,
      "name": "floatBufferViews",
      "target": 34962
    },
    {
      "buffer": 0,
      "byteLength": 113208,
      "byteOffset": 113828,
      "byteStride": 12,
      "name": "floatBufferViews",
      "target": 34962
    }
  ],
  "buffers": [
    {
      "byteLength": 227036,
      "uri": "scene.bin"
    }
  ],
  "images": [
    {
      "uri": "textures/01_-_Default_baseColor.jpeg"
    },
    {
      "uri": "textures/map6_baseColor.png"
    },
    {
      "uri": "textures/map3_baseColor.jpeg"
    },
    {
      "uri": "textures/map7_baseColor.png"
    }
  ],
  "materials": [
    {
      "name": "01_-_Default",
      "pbrMetallicRoughness": {
        "baseColorFactor": [
          0.660333,
          0.660333,
          0.660333,
          1.0
        ],
        "baseColorTexture": {
          "index": 0
        },
        "metallicFactor": 0.0,
        "roughnessFactor": 0.546447
      }
    },
    {
      "name": "map5",
      "pbrMetallicRoughness": {
        "baseColorFactor": [
          0.960784,
          0.94902,
          0.929412,
          1.0
        ],
        "metallicFactor": 0.0,
        "roughnessFactor": 0.546447
      }
    },
    {
      "name": "map6",
      "pbrMetallicRoughness": {
        "baseColorFactor": [
          0.660333,
          0.660333,
          0.660333,
          1.0
        ],
        "baseColorTexture": {
          "index": 1
        },
        "metallicFactor": 0.0,
        "roughnessFactor": 0.546447
      }
    },
    {
      "name": "map6_0",
      "pbrMetallicRoughness": {
        "baseColorFactor": [
          0.660333,
          0.660333,
          0.660333,
          1.0
        ],
        "baseColorTexture": {
          "index": 1
        },
        "metallicFactor": 0.0,
        "roughnessFactor": 0.546447
      }
    },
    {
      "name": "map3",
      "pbrMetallicRoughness": {
        "baseColorFactor": [
          0.660333,
          0.660333,
          0.660333,
          1.0
        ],
        "baseColorTexture": {
          "index": 2
        },
        "metallicFactor": 0.0,
        "roughnessFactor": 0.546447
      }
    },
    {
      "name": "map7",
      "pbrMetallicRoughness": {
        "baseColorFactor": [
          0.660333,
          0.660333,
          0.660333,
          1.0
        ],
        "baseColorTexture": {
          "index": 3
        },
        "metallicFactor": 0.0,
        "roughnessFactor": 0.546447
      }
    },
    {
      "name": "map5_0",
      "pbrMetallicRoughness": {
        "baseColorFactor": [
          0.960784,
          0.94902,
          0.929412,
          1.0
        ],
        "metallicFactor": 0.0,
        "roughnessFactor": 0.546447
      }
    },
    {
      "name": "map5_1",
      "pbrMetallicRoughness": {
        "baseColorFactor": [
          0.960784,
          0.94902,
          0.929412,
          1.0
        ],
        "metallicFactor": 0.0,
        "roughnessFactor": 0.546447
      }
    },
    {
      "name": "map5_2",
      "pbrMetallicRoughness": {
        "baseColorFactor": [
          0.960784,
          0.94902,
          0.929412,
          1.0
        ],
        "metallicFactor": 0.0,
        "roughnessFactor": 0.546447
      }
    },
    {
      "name": "map3_0",
      "pbrMetallicRoughness": {
        "baseColorFactor": [
          0.660333,
          0.660333,
          0.660333,
          1.0
        ],
        "baseColorTexture": {
          "index": 2
        },
        "metallicFactor": 0.0,
        "roughnessFactor": 0.546447
      }
    },
    {
      "name": "map5_3",
      "pbrMetallicRoughness": {
        "baseColorFactor": [
          0.960784,
          0.94902,
          0.929412,
          1.0
        ],
        "metallicFactor": 0.0,
        "roughnessFactor": 0.546447
      }
    }
  ],
  "meshes": [
    {
      "name": "Object_0",
      "primitives": [
        {
          "attributes": {
            "NORMAL": 1,
            "POSITION": 0,
            "TEXCOORD_0": 2
          },
          "indices": 3,
          "material": 0,
          "mode": 4
        }
      ]
    },
    {
      "name": "Object_1",
      "primitives": [
        {
          "attributes": {
            "NORMAL": 5,
            "POSITION": 4,
            "TEXCOORD_0": 6
          },
          "indices": 7,
          "material": 1,
          "mode": 4
        }
      ]
    },
    {
      "name": "Object_2",
      "primitives": [
        {
          "attributes": {
            "NORMAL": 9,
            "POSITION": 8,
            "TEXCOORD_0": 10
          },
          "indices": 11,
          "material": 2,
          "mode": 4
        }
      ]
    },
    {
      "name": "Object_3",
      "primitives": [
        {
          "attributes": {
            "NORMAL": 13,
            "POSITION": 12,
            "TEXCOORD_0": 14
          },
          "indices": 15,
          "material": 3,
          "mode": 4
        }
      ]
    },
    {
      "name": "Object_4",
      "primitives": [
        {
          "attributes": {
            "NORMAL": 17,
            "POSITION": 16,
            "TEXCOORD_0": 18
          },
          "indices": 19,
          "material": 4,
          "mode": 4
        }
      ]
    },
    {
      "name": "Object_5",
      "primitives": [
        {
          "attributes": {
            "NORMAL": 21,
            "POSITION": 20,
            "TEXCOORD_0": 22
          },
          "indices": 23,
          "material": 5,
          "mode": 4
        }
      ]
    },
    {
      "name": "Object_6",
      "primitives": [
        {
          "attributes": {
            "NORMAL": 25,
            "POSITION": 24,
            "TEXCOORD_0": 26
          },
          "indices": 27,
          "material": 6,
          "mode": 4
        }
      ]
    },
    {
      "name": "Object_7",
      "primitives": [
        {
          "attributes": {
            "NORMAL": 29,
            "POSITION": 28,
            "TEXCOORD_0": 30
          },
          "indices": 31,
          "material": 7,
          "mode": 4
        }
      ]
    },
    {
      "name": "Object_8",
      "primitives": [
        {
          "attributes": {
            "NORMAL": 33,
            "POSITION": 32,
            "TEXCOORD_0": 34
          },
          "indices": 35,
          "material": 8,
          "mode": 4
        }
      ]
    },
    {
      "name": "Object_9",
      "primitives": [
        {
          "attributes": {
            "NORMAL": 37,
            "POSITION": 36,
            "TEXCOORD_0": 38
          },
          "indices": 39,
          "material": 9,
          "mode": 4
        }
      ]
    },
    {
      "name": "Object_10",
      "primitives": [
        {
          "attributes": {
            "NORMAL": 41,
            "POSITION": 40,
            "TEXCOORD_0": 42
          },
          "indices": 43,
          "material": 10,
          "mode": 4
        }
      ]
    }
  ],
  "nodes": [
    {
      "children": [
        1
      ],
      "matrix": [
        1.0,
        0.0,
        0.0,
        0.0,
        0.0,
        2.220446049250313e-16,
        -1.0,
        0.0,
        0.0,
        1.0,
        2.220446049250313e-16,
        0.0,
        0.0,
        0.0,
        0.0,
        1.0
      ],
      "name": "Sketchfab_model"
    },
    {
      "children": [
        2
      ],
      "name": "root"
    },
    {
      "children": [
        3,
        5,
        7,
        9,
        11,
        14,
        16,
        18,
        20
      ],
      "matrix": [
        1.0,
        0.0,
        0.0,
        0.0,
        0.0,
        2.220446049250313e-16,
        1.0,
        0.0,
        0.0,
        -1.0,
        2.220446049250313e-16,
        0.0,
        0.0,
        0.0,
        0.0,
        1.0
      ],
      "name": "GLTF_SceneRootNode"
    },
    {
      "children": [
        4
      ],
      "matrix": [
        1.0,
        0.0,
        0.0,
        0.0,
        0.0,
        1.0,
        1.6292068494294654e-07,
        0.0,
        0.0,
        -1.6292068494294654e-07,
        1.0,
        0.0,
        -2.1761932373046875,
        109.47882080078125,
        0.11573350429534912,
        1.0
      ],
      "name": "Rectangle001_0"
    },
    {
      "mesh": 0,
      "name": "Object_4"
    },
    {
      "children": [
        6
      ],
      "matrix": [
        1.0,
        0.0,
        0.0,
        0.0,
        0.0,
        2.570196905042924e-17,
        -0.41974499821662903,
        0.0,
        0.0,
        0.11560899764299393,
        7.079009200686973e-18,
        0.0,
        -7.62939453125e-06,
        12.460113525390625,
        19.90460205078125,
        1.0
      ],
      "name": "Cylinder002_1"
    },
    {
      "mesh": 1,
      "name": "Object_6"
    },
    {
      "children": [
        8
      ],
      "matrix": [
        1.0,
        0.0,
        0.0,
        0.0,
        0.0,
        2.570196905042924e-17,
        -0.41974499821662903,
        0.0,
        0.0,
        1.0,
        6.123234262925839e-17,
        0.0,
        -7.62939453125e-06,
        -0.06109619140625,
        19.90460205078125,
        1.0
      ],
      "name": "Cylinder001_2"
    },
    {
      "mesh": 2,
      "name": "Object_8"
    },
    {
      "children": [
        10
      ],
      "matrix": [
        -7.277896685309315e-08,
        4.470348713425665e-08,
        0.3865930140018463,
        0.0,
        -5.450728579603492e-08,
        0.3865930140018463,
        -4.4703494239684005e-08,
        0.0,
        -0.44671401381492615,
        -6.298399313209302e-08,
        -8.409718077473372e-08,
        0.0,
        34.012840270996094,
        24.244123458862305,
        3.344827175140381,
        1.0
      ],
      "name": "Line001_3"
    },
    {
      "mesh": 3,
      "name": "Object_10"
    },
    {
      "children": [
        12,
        13
      ],
      "matrix": [
        0.46693000197410583,
        0.0,
        0.0,
        0.0,
        0.0,
        2.8591216631487134e-17,
        -0.46693000197410583,
        0.0,
        0.0,
        0.46693000197410583,
        2.8591216631487134e-17,
        0.0,
        22.497243881225586,
        18.518077850341797,
        57.98057556152344,
        1.0
      ],
      "name": "ChamferCyl004_4"
    },
    {
      "mesh": 4,
      "name": "Object_12"
    },
    {
      "mesh": 5,
      "name": "Object_13"
    },
    {
      "children": [
        15
      ],
      "matrix": [
        0.7524740099906921,
        0.0,
        0.0,
        0.0,
        0.0,
        4.6075743520604306e-17,
        -0.7524740099906921,
        0.0,
        0.0,
        0.6691960096359253,
        4.097643643328846e-17,
        0.0,
        -35.37176513671875,
        32.26008605957031,
        7.732044219970703,
        1.0
      ],
      "name": "Sphere001_5"
    },
    {
      "mesh": 6,
      "name": "Object_15"
    },
    {
      "children": [
        17
      ],
      "matrix": [
        0.5006150007247925,
        0.0,
        0.0,
        0.0,
        0.0,
        3.065382788483506e-17,
        -0.5006150007247925,
        0.0,
        0.0,
        0.4452100098133087,
        2.7261250827206e-17,
        0.0,
        141.72372436523438,
        178.29547119140625,
        7.73205041885376,
        1.0
      ],
      "name": "Sphere002_6"
    },
    {
      "mesh": 7,
      "name": "Object_17"
    },
    {
      "children": [
        19
      ],
      "matrix": [
        1.3203279972076416,
        0.0,
        0.0,
        0.0,
        0.0,
        8.08467735689159e-17,
        -1.3203279972076416,
        0.0,
        0.0,
        1.1742039918899536,
        7.189926014460331e-17,
        0.0,
        -35.37176513671875,
        187.99411010742188,
        -47.05607986450195,
        1.0
      ],
      "name": "Sphere003_7"
    },
    {
      "mesh": 8,
      "name": "Object_19"
    },
    {
      "children": [
        21,
        22
      ],
      "matrix": [
        1.0,
        0.0,
        0.0,
        0.0,
        0.0,
        1.0,
        1.6292068494294654e-07,
        0.0,
        0.0,
        -1.6292068494294654e-07,
        1.0,
        0.0,
        147.88763427734375,
        63.391563415527344,
        25.615966796875,
        1.0
      ],
      "name": "Text004_8"
    },
    {
      "mesh": 9,
      "name": "Object_21"
    },
    {
      "mesh": 10,
      "name": "Object_22"
    }
  ],
  "samplers": [
    {
      "magFilter": 9729,
      "minFilter": 9729,
      "wrapS": 10497,
      "wrapT": 10497
    }
  ],
  "scene": 0,
  "scenes": [
    {
      "name": "Sketchfab_Scene",
      "nodes": [
        0
      ]
    }
  ],
  "textures": [
    {
      "sampler": 0,
      "source": 0
    },
    {
      "sampler": 0,
      "source": 1
    },
    {
      "sampler": 0,
      "source": 2
    },
    {
      "sampler": 0,
      "source": 3
    }
  ]
}
